<?xml version="1.0" encoding="UTF-8" standalone="no"?>
<!DOCTYPE svg PUBLIC "-//W3C//DTD SVG 1.1//EN"
 "http://www.w3.org/Graphics/SVG/1.1/DTD/svg11.dtd">
<!-- Generated by graphviz version 2.43.0 (0)
 -->
<!-- Title: G Pages: 1 -->
<svg width="388pt" height="361pt"
 viewBox="0.00 0.00 388.00 361.25" xmlns="http://www.w3.org/2000/svg" xmlns:xlink="http://www.w3.org/1999/xlink">
<g id="graph0" class="graph" transform="scale(1 1) rotate(0) translate(4 357.25)">
<title>G</title>
<polygon fill="#fbfbfd" stroke="transparent" points="-4,4 -4,-357.25 384,-357.25 384,4 -4,4"/>
<text text-anchor="middle" x="190" y="-338.05" font-family="DejaVu Sans" font-size="14.00">GOST 28147&#45;89 — Feistel datapath (1 round / clock)</text>
<!-- N1 -->
<g id="node1" class="node">
<title>N1</title>
<path fill="#eaf6ec" stroke="#2f7d43" stroke-width="1.2" d="M148.25,-330.25C148.25,-330.25 110.25,-330.25 110.25,-330.25 104.25,-330.25 98.25,-324.25 98.25,-318.25 98.25,-318.25 98.25,-306.25 98.25,-306.25 98.25,-300.25 104.25,-294.25 110.25,-294.25 110.25,-294.25 148.25,-294.25 148.25,-294.25 154.25,-294.25 160.25,-300.25 160.25,-306.25 160.25,-306.25 160.25,-318.25 160.25,-318.25 160.25,-324.25 154.25,-330.25 148.25,-330.25"/>
<text text-anchor="middle" x="129.25" y="-309.45" font-family="DejaVu Sans" font-size="11.00">N1 &#160;(32)</text>
</g>
<!-- N2 -->
<g id="node2" class="node">
<title>N2</title>
<path fill="#eaf6ec" stroke="#2f7d43" stroke-width="1.2" d="M73.25,-109.63C73.25,-109.63 35.25,-109.63 35.25,-109.63 29.25,-109.63 23.25,-103.63 23.25,-97.63 23.25,-97.63 23.25,-85.63 23.25,-85.63 23.25,-79.63 29.25,-73.63 35.25,-73.63 35.25,-73.63 73.25,-73.63 73.25,-73.63 79.25,-73.63 85.25,-79.63 85.25,-85.63 85.25,-85.63 85.25,-97.63 85.25,-97.63 85.25,-103.63 79.25,-109.63 73.25,-109.63"/>
<text text-anchor="middle" x="54.25" y="-88.83" font-family="DejaVu Sans" font-size="11.00">N2 &#160;(32)</text>
</g>
<!-- N1&#45;&gt;N2 -->
<g id="edge8" class="edge">
<title>N1&#45;&gt;N2</title>
<path fill="none" stroke="#5a6a7d" stroke-width="1.1" d="M115.41,-294.2C111.61,-289.19 107.6,-283.62 104.25,-278.25 86.02,-249.1 79.37,-242.12 69.25,-209.25 59.76,-178.45 56.27,-141.27 54.99,-117.3"/>
<polygon fill="#5a6a7d" stroke="#5a6a7d" stroke-width="1.1" points="57.42,-116.89 54.65,-110.01 52.53,-117.12 57.42,-116.89"/>
<text text-anchor="middle" x="86.75" y="-202.05" font-family="DejaVu Sans" font-size="9.00">new N2</text>
</g>
<!-- ADD -->
<g id="node3" class="node">
<title>ADD</title>
<ellipse fill="#e8eefb" stroke="#3b5bab" stroke-width="1.2" cx="267.25" cy="-243.25" rx="43.8" ry="18"/>
<text text-anchor="middle" x="267.25" y="-240.45" font-family="DejaVu Sans" font-size="11.00">⊞ mod 2³²</text>
</g>
<!-- N1&#45;&gt;ADD -->
<g id="edge1" class="edge">
<title>N1&#45;&gt;ADD</title>
<path fill="none" stroke="#5a6a7d" stroke-width="1.1" d="M160.56,-296.05C182.28,-285.51 211.17,-271.48 233.42,-260.68"/>
<polygon fill="#5a6a7d" stroke="#5a6a7d" stroke-width="1.1" points="234.57,-262.85 239.79,-257.58 232.43,-258.44 234.57,-262.85"/>
</g>
<!-- XOR -->
<g id="node7" class="node">
<title>XOR</title>
<ellipse fill="#e8eefb" stroke="#3b5bab" stroke-width="1.2" cx="123.25" cy="-18" rx="27" ry="18"/>
<text text-anchor="middle" x="123.25" y="-15.2" font-family="DejaVu Sans" font-size="11.00">⊕</text>
</g>
<!-- N2&#45;&gt;XOR -->
<g id="edge6" class="edge">
<title>N2&#45;&gt;XOR</title>
<path fill="none" stroke="#5a6a7d" stroke-width="1.1" d="M70.95,-73.29C80.96,-62.9 93.72,-49.65 104.13,-38.85"/>
<polygon fill="#5a6a7d" stroke="#5a6a7d" stroke-width="1.1" points="105.94,-40.5 109.03,-33.76 102.41,-37.1 105.94,-40.5"/>
</g>
<!-- SB -->
<g id="node5" class="node">
<title>SB</title>
<path fill="#e8eefb" stroke="#3b5bab" stroke-width="1.2" d="M344.75,-183.25C344.75,-183.25 195.75,-183.25 195.75,-183.25 189.75,-183.25 183.75,-177.25 183.75,-171.25 183.75,-171.25 183.75,-159.25 183.75,-159.25 183.75,-153.25 189.75,-147.25 195.75,-147.25 195.75,-147.25 344.75,-147.25 344.75,-147.25 350.75,-147.25 356.75,-153.25 356.75,-159.25 356.75,-159.25 356.75,-171.25 356.75,-171.25 356.75,-177.25 350.75,-183.25 344.75,-183.25"/>
<text text-anchor="middle" x="270.25" y="-168.45" font-family="DejaVu Sans" font-size="11.00">S&#45;box layer</text>
<text text-anchor="middle" x="270.25" y="-156.45" font-family="DejaVu Sans" font-size="11.00">8 × ROM 16×4 &#160;(flat 128×4)</text>
</g>
<!-- ADD&#45;&gt;SB -->
<g id="edge3" class="edge">
<title>ADD&#45;&gt;SB</title>
<path fill="none" stroke="#5a6a7d" stroke-width="1.1" d="M267.93,-225.01C268.33,-214.81 268.85,-201.72 269.29,-190.49"/>
<polygon fill="#5a6a7d" stroke="#5a6a7d" stroke-width="1.1" points="271.74,-190.52 269.57,-183.43 266.85,-190.33 271.74,-190.52"/>
</g>
<!-- K -->
<g id="node4" class="node">
<title>K</title>
<path fill="#fdf0e3" stroke="#b06d1f" stroke-width="1.2" d="M334.25,-330.25C334.25,-330.25 200.25,-330.25 200.25,-330.25 194.25,-330.25 188.25,-324.25 188.25,-318.25 188.25,-318.25 188.25,-306.25 188.25,-306.25 188.25,-300.25 194.25,-294.25 200.25,-294.25 200.25,-294.25 334.25,-294.25 334.25,-294.25 340.25,-294.25 346.25,-300.25 346.25,-306.25 346.25,-306.25 346.25,-318.25 346.25,-318.25 346.25,-324.25 340.25,-330.25 334.25,-330.25"/>
<text text-anchor="middle" x="267.25" y="-315.45" font-family="DejaVu Sans" font-size="11.00">subkey X[key_index(rnd)]</text>
<text text-anchor="middle" x="267.25" y="-303.45" font-family="DejaVu Sans" font-size="11.00">8 × 32&#45;bit key register</text>
</g>
<!-- K&#45;&gt;ADD -->
<g id="edge2" class="edge">
<title>K&#45;&gt;ADD</title>
<path fill="none" stroke="#5a6a7d" stroke-width="1.1" d="M267.25,-294C267.25,-286.32 267.25,-277.14 267.25,-268.77"/>
<polygon fill="#5a6a7d" stroke="#5a6a7d" stroke-width="1.1" points="269.7,-268.68 267.25,-261.68 264.8,-268.68 269.7,-268.68"/>
</g>
<!-- ROL -->
<g id="node6" class="node">
<title>ROL</title>
<ellipse fill="#e8eefb" stroke="#3b5bab" stroke-width="1.2" cx="246.25" cy="-91.63" rx="60.62" ry="22.76"/>
<text text-anchor="middle" x="246.25" y="-94.83" font-family="DejaVu Sans" font-size="11.00">≪ 11</text>
<text text-anchor="middle" x="246.25" y="-82.83" font-family="DejaVu Sans" font-size="11.00">(wiring only)</text>
</g>
<!-- SB&#45;&gt;ROL -->
<g id="edge4" class="edge">
<title>SB&#45;&gt;ROL</title>
<path fill="none" stroke="#5a6a7d" stroke-width="1.1" d="M264.44,-146.92C261.84,-139.14 258.69,-129.77 255.76,-121.01"/>
<polygon fill="#5a6a7d" stroke="#5a6a7d" stroke-width="1.1" points="258.01,-120.02 253.47,-114.16 253.37,-121.58 258.01,-120.02"/>
</g>
<!-- ROL&#45;&gt;XOR -->
<g id="edge5" class="edge">
<title>ROL&#45;&gt;XOR</title>
<path fill="none" stroke="#5a6a7d" stroke-width="1.1" d="M214.57,-72.18C194.24,-60.34 168.16,-45.15 149.08,-34.04"/>
<polygon fill="#5a6a7d" stroke="#5a6a7d" stroke-width="1.1" points="150.18,-31.85 142.9,-30.44 147.72,-36.08 150.18,-31.85"/>
</g>
<!-- XOR&#45;&gt;N1 -->
<g id="edge7" class="edge">
<title>XOR&#45;&gt;N1</title>
<path fill="none" stroke="#5a6a7d" stroke-width="1.1" d="M123.25,-36.08C123.25,-50.59 123.25,-71.97 123.25,-90.63 123.25,-244.25 123.25,-244.25 123.25,-244.25 123.25,-258.51 124.61,-274.4 126.04,-287.13"/>
<polygon fill="#5a6a7d" stroke="#5a6a7d" stroke-width="1.1" points="123.62,-287.55 126.88,-294.22 128.49,-286.98 123.62,-287.55"/>
<text text-anchor="middle" x="140.75" y="-163.05" font-family="DejaVu Sans" font-size="9.00">new N1</text>
</g>
</g>
</svg>
