<?xml version="1.0" encoding="UTF-8" standalone="no"?>
<!DOCTYPE svg PUBLIC "-//W3C//DTD SVG 1.1//EN"
 "http://www.w3.org/Graphics/SVG/1.1/DTD/svg11.dtd">
<!-- Generated by graphviz version 2.43.0 (0)
 -->
<!-- Title: G Pages: 1 -->
<svg width="522pt" height="188pt"
 viewBox="0.00 0.00 522.00 188.34" xmlns="http://www.w3.org/2000/svg" xmlns:xlink="http://www.w3.org/1999/xlink">
<g id="graph0" class="graph" transform="scale(1 1) rotate(0) translate(4 184.34)">
<title>G</title>
<polygon fill="#fbfbfd" stroke="transparent" points="-4,4 -4,-184.34 518,-184.34 518,4 -4,4"/>
<text text-anchor="middle" x="257" y="-165.14" font-family="DejaVu Sans" font-size="14.00">Kalyna — block FSM (Nr+2 clocks per block)</text>
<!-- IDLE -->
<g id="node1" class="node">
<title>IDLE</title>
<path fill="#f3e8fb" stroke="#7b3fa6" stroke-width="1.2" d="M42,-53.34C42,-53.34 12,-53.34 12,-53.34 6,-53.34 0,-47.34 0,-41.34 0,-41.34 0,-29.34 0,-29.34 0,-23.34 6,-17.34 12,-17.34 12,-17.34 42,-17.34 42,-17.34 48,-17.34 54,-23.34 54,-29.34 54,-29.34 54,-41.34 54,-41.34 54,-47.34 48,-53.34 42,-53.34"/>
<text text-anchor="middle" x="27" y="-32.54" font-family="DejaVu Sans" font-size="11.00">IDLE</text>
</g>
<!-- ENC -->
<g id="node2" class="node">
<title>ENC</title>
<path fill="#eaf6ec" stroke="#2f7d43" stroke-width="1.2" d="M301,-132.34C301,-132.34 180,-132.34 180,-132.34 174,-132.34 168,-126.34 168,-120.34 168,-120.34 168,-108.34 168,-108.34 168,-102.34 174,-96.34 180,-96.34 180,-96.34 301,-96.34 301,-96.34 307,-96.34 313,-102.34 313,-108.34 313,-108.34 313,-120.34 313,-120.34 313,-126.34 307,-132.34 301,-132.34"/>
<text text-anchor="middle" x="240.5" y="-117.54" font-family="DejaVu Sans" font-size="11.00">ENC_ROUND</text>
<text text-anchor="middle" x="240.5" y="-105.54" font-family="DejaVu Sans" font-size="11.00">Nr−1 × (round, ⊕ rk[i])</text>
</g>
<!-- IDLE&#45;&gt;ENC -->
<g id="edge1" class="edge">
<title>IDLE&#45;&gt;ENC</title>
<path fill="none" stroke="#5a6a7d" stroke-width="1.1" d="M54.1,-52.89C59.25,-55.94 64.7,-58.91 70,-61.34 98.82,-74.51 131.81,-85.64 160.98,-94.26"/>
<polygon fill="#5a6a7d" stroke="#5a6a7d" stroke-width="1.1" points="160.52,-96.67 167.92,-96.28 161.89,-91.97 160.52,-96.67"/>
<text text-anchor="middle" x="108.5" y="-101.14" font-family="DejaVu Sans" font-size="9.00">start ∧ ¬decrypt</text>
<text text-anchor="middle" x="108.5" y="-91.14" font-family="DejaVu Sans" font-size="9.00">st ← pt ⊞ rk[0]</text>
</g>
<!-- DEC -->
<g id="node3" class="node">
<title>DEC</title>
<path fill="#eaf6ec" stroke="#2f7d43" stroke-width="1.2" d="M306,-53.34C306,-53.34 175,-53.34 175,-53.34 169,-53.34 163,-47.34 163,-41.34 163,-41.34 163,-29.34 163,-29.34 163,-23.34 169,-17.34 175,-17.34 175,-17.34 306,-17.34 306,-17.34 312,-17.34 318,-23.34 318,-29.34 318,-29.34 318,-41.34 318,-41.34 318,-47.34 312,-53.34 306,-53.34"/>
<text text-anchor="middle" x="240.5" y="-38.54" font-family="DejaVu Sans" font-size="11.00">DEC_ROUND</text>
<text text-anchor="middle" x="240.5" y="-26.54" font-family="DejaVu Sans" font-size="11.00">Nr−1 × (round⁻¹, ⊕ rk[i])</text>
</g>
<!-- IDLE&#45;&gt;DEC -->
<g id="edge2" class="edge">
<title>IDLE&#45;&gt;DEC</title>
<path fill="none" stroke="#5a6a7d" stroke-width="1.1" d="M54.36,-35.34C79.69,-35.34 119.34,-35.34 155.46,-35.34"/>
<polygon fill="#5a6a7d" stroke="#5a6a7d" stroke-width="1.1" points="155.63,-37.79 162.63,-35.34 155.63,-32.89 155.63,-37.79"/>
<text text-anchor="middle" x="108.5" y="-48.14" font-family="DejaVu Sans" font-size="9.00">start ∧ decrypt</text>
<text text-anchor="middle" x="108.5" y="-38.14" font-family="DejaVu Sans" font-size="9.00">st ← ct ⊟ rk[Nr]</text>
</g>
<!-- ENC&#45;&gt;ENC -->
<g id="edge3" class="edge">
<title>ENC&#45;&gt;ENC</title>
<path fill="none" stroke="#5a6a7d" stroke-width="1.1" d="M218.17,-132.45C211.4,-144.99 218.84,-157.34 240.5,-157.34 258.26,-157.34 266.47,-149.03 265.1,-139.12"/>
<polygon fill="#5a6a7d" stroke="#5a6a7d" stroke-width="1.1" points="267.41,-138.29 262.83,-132.45 262.77,-139.87 267.41,-138.29"/>
</g>
<!-- FIN -->
<g id="node4" class="node">
<title>FIN</title>
<path fill="#e8eefb" stroke="#3b5bab" stroke-width="1.2" d="M502,-53.34C502,-53.34 459,-53.34 459,-53.34 453,-53.34 447,-47.34 447,-41.34 447,-41.34 447,-29.34 447,-29.34 447,-23.34 453,-17.34 459,-17.34 459,-17.34 502,-17.34 502,-17.34 508,-17.34 514,-23.34 514,-29.34 514,-29.34 514,-41.34 514,-41.34 514,-47.34 508,-53.34 502,-53.34"/>
<text text-anchor="middle" x="480.5" y="-38.54" font-family="DejaVu Sans" font-size="11.00">FINISH</text>
<text text-anchor="middle" x="480.5" y="-26.54" font-family="DejaVu Sans" font-size="11.00">done ← 1</text>
</g>
<!-- ENC&#45;&gt;FIN -->
<g id="edge5" class="edge">
<title>ENC&#45;&gt;FIN</title>
<path fill="none" stroke="#5a6a7d" stroke-width="1.1" d="M295.8,-96.31C339.59,-81.78 400.16,-61.67 439.58,-48.59"/>
<polygon fill="#5a6a7d" stroke="#5a6a7d" stroke-width="1.1" points="440.81,-50.76 446.68,-46.23 439.27,-46.11 440.81,-50.76"/>
<text text-anchor="middle" x="382.5" y="-84.14" font-family="DejaVu Sans" font-size="9.00">final round, ⊞ rk[Nr]</text>
</g>
<!-- DEC&#45;&gt;DEC -->
<g id="edge4" class="edge">
<title>DEC&#45;&gt;DEC</title>
<path fill="none" stroke="#5a6a7d" stroke-width="1.1" d="M218.17,-53.45C211.4,-65.99 218.84,-78.34 240.5,-78.34 258.26,-78.34 266.47,-70.03 265.1,-60.12"/>
<polygon fill="#5a6a7d" stroke="#5a6a7d" stroke-width="1.1" points="267.41,-59.29 262.83,-53.45 262.77,-60.87 267.41,-59.29"/>
</g>
<!-- DEC&#45;&gt;FIN -->
<g id="edge6" class="edge">
<title>DEC&#45;&gt;FIN</title>
<path fill="none" stroke="#5a6a7d" stroke-width="1.1" d="M318.11,-35.34C358.54,-35.34 406.48,-35.34 439.54,-35.34"/>
<polygon fill="#5a6a7d" stroke="#5a6a7d" stroke-width="1.1" points="439.78,-37.79 446.78,-35.34 439.78,-32.89 439.78,-37.79"/>
<text text-anchor="middle" x="382.5" y="-38.14" font-family="DejaVu Sans" font-size="9.00">final round⁻¹, ⊟ rk[0]</text>
</g>
<!-- FIN&#45;&gt;IDLE -->
<g id="edge7" class="edge">
<title>FIN&#45;&gt;IDLE</title>
<path fill="none" stroke="#5a6a7d" stroke-width="1.1" d="M446.96,-27.47C414.52,-20.06 363.15,-9.5 318,-5.34 249.4,0.98 231.48,2.18 163,-5.34 127.73,-9.21 88.19,-18.61 61.06,-25.86"/>
<polygon fill="#5a6a7d" stroke="#5a6a7d" stroke-width="1.1" points="60.22,-23.56 54.1,-27.75 61.5,-28.29 60.22,-23.56"/>
</g>
</g>
</svg>
